<?xml version="1.0" standalone="no"?>
<!DOCTYPE svg PUBLIC "-//W3C//DTD SVG 20010904//EN"
 "http://www.w3.org/TR/2001/REC-SVG-20010904/DTD/svg10.dtd">
<svg version="1.0" xmlns="http://www.w3.org/2000/svg"
 width="297.000000pt" height="169.000000pt" viewBox="0 0 297.000000 169.000000"
 preserveAspectRatio="xMidYMid meet">

<g transform="translate(0.000000,169.000000) scale(0.100000,-0.100000)"
fill="#000000" stroke="none">
<path d="M388 1228 c-35 -9 -118 -71 -118 -88 0 -5 10 -10 23 -12 l22 -3 3
-280 c2 -249 4 -281 19 -292 42 -32 43 -28 43 282 l0 295 55 0 55 0 0 55 0 55
-32 -1 c-18 -1 -49 -5 -70 -11z"/>
<path d="M520 1178 c0 -37 4 -57 10 -53 6 4 10 -32 10 -99 0 -64 -4 -106 -10
-106 -5 0 -10 -7 -10 -15 0 -12 14 -15 65 -15 51 0 65 3 65 15 0 8 -7 15 -15
15 -13 0 -15 16 -13 103 2 75 6 101 16 99 8 -1 12 11 12 38 0 44 -9 51 -91 69
l-39 9 0 -60z"/>
<path d="M680 1035 l0 -145 70 0 c58 0 71 3 80 19 15 29 12 63 -7 91 -12 17
-13 25 -5 28 15 5 16 76 1 103 -5 11 -14 17 -19 14 -5 -3 -33 4 -62 15 -29 11
-54 20 -55 20 -2 0 -3 -65 -3 -145z m90 40 c0 -19 -4 -37 -10 -40 -6 -4 -10
12 -10 40 0 28 4 44 10 40 6 -3 10 -21 10 -40z m0 -115 c0 -16 -4 -32 -10 -35
-6 -4 -10 10 -10 35 0 25 4 39 10 35 6 -3 10 -19 10 -35z"/>
<path d="M910 1161 c-23 -6 -26 -14 -42 -121 -23 -159 -24 -150 17 -150 28 0
35 4 35 20 0 11 7 20 15 20 8 0 15 -9 15 -20 0 -16 7 -20 30 -20 36 0 35 -7
13 156 -18 135 -16 134 -83 115z m30 -121 c0 -27 -4 -50 -10 -50 -11 0 -14 59
-4 84 10 27 14 18 14 -34z"/>
<path d="M1050 1020 l0 -130 55 0 c52 0 55 1 55 25 0 18 -5 25 -20 25 -18 0
-20 7 -20 84 0 82 -1 85 -29 105 -16 12 -32 21 -35 21 -3 0 -6 -58 -6 -130z"/>
<path d="M400 1091 c0 -10 7 -21 15 -25 9 -3 15 -18 15 -36 0 -18 -6 -33 -15
-36 -10 -4 -15 -20 -15 -50 0 -30 5 -46 15 -50 13 -5 15 -36 15 -195 l0 -189
35 0 35 0 0 219 c0 186 -2 220 -16 232 -14 11 -14 13 0 21 19 11 22 98 4 116
-7 7 -29 12 -50 12 -31 0 -38 -4 -38 -19z"/>
<path d="M2280 930 c-13 -24 -13 -97 0 -105 6 -3 10 3 10 14 0 12 6 21 14 21
8 0 16 7 18 16 3 18 68 31 68 14 0 -6 4 -10 9 -10 6 0 6 11 0 29 -7 21 -19 31
-37 34 -51 9 -72 6 -82 -13z"/>
<path d="M2501 914 c-13 -17 -21 -40 -20 -63 l1 -36 7 31 c11 43 19 54 43 54
19 0 20 -4 13 -62 -7 -57 -6 -61 9 -49 9 7 16 22 16 32 0 9 7 24 15 33 31 31
15 68 -36 81 -21 5 -31 1 -48 -21z"/>
<path d="M2680 920 c-26 -26 -26 -43 1 -35 34 11 69 -3 69 -26 0 -17 3 -19 13
-10 8 6 17 7 22 3 4 -4 5 9 1 28 -11 59 -66 80 -106 40z"/>
<path d="M520 695 c0 -141 3 -185 13 -185 27 0 36 18 39 75 2 33 7 60 13 60 5
0 13 -24 18 -54 4 -30 9 -56 11 -59 2 -2 19 4 36 13 30 16 32 19 26 58 -3 23
-8 78 -11 122 -3 44 -8 97 -11 118 l-6 37 -64 0 -64 0 0 -185z m79 17 c1 -20
-3 -32 -10 -30 -6 2 -10 7 -10 11 1 4 2 31 2 60 1 44 2 48 9 22 4 -16 8 -45 9
-63z"/>
<path d="M684 858 c3 -13 6 -29 6 -35 0 -8 13 -13 30 -13 l30 0 0 -85 c0 -85
0 -85 -26 -85 -22 0 -25 -4 -22 -27 2 -24 7 -27 28 -24 14 2 60 4 103 4 75 -1
77 0 77 23 0 17 -6 24 -20 24 -18 0 -20 7 -20 85 0 78 2 85 20 85 16 0 20 7
20 35 l0 35 -116 0 c-116 0 -116 0 -110 -22z"/>
<path d="M950 731 l0 -151 30 0 c30 0 30 0 31 58 l0 57 18 -45 c10 -24 23 -46
28 -47 17 -6 75 49 89 84 8 18 14 67 14 113 l0 80 -55 0 -55 0 -1 -67 -1 -68
-16 65 c-16 62 -18 65 -49 68 l-33 3 0 -150z"/>
</g>
</svg>
